<svg xmlns="http://www.w3.org/2000/svg" width="1200" height="720" viewBox="0 0 1200 720"><title>Real-assembly operational profiles of MobiOrigin and five comparators</title><desc>Panel A shows mean end-to-end runtime on a logarithmic scale. Panel B shows plasmid call fraction and prediction coverage. These are label-free operational measurements, not accuracy.</desc><rect width="1200" height="720" fill="white"/><style>text{font-family:Arial,Helvetica,sans-serif;fill:#17202A}.title{font-size:24px;font-weight:700}.axis{font-size:15px}.label{font-size:14px}.panel{font-size:20px;font-weight:700}.note{font-size:14px;fill:#455A64}.grid{stroke:#D5DBDB;stroke-width:1}.frame{stroke:#263238;stroke-width:1.5;fill:none}</style><text x="60" y="45" class="title">Real-assembly operational validation (two deterministic subsets)</text><text x="60" y="86" class="panel">A</text><text x="105" y="86" class="axis">Mean end-to-end runtime (seconds; log scale)</text><rect x="105" y="110" width="440" height="470" class="frame"/><line x1="105" y1="580.0" x2="545" y2="580.0" class="grid"/><text x="93" y="585.0" text-anchor="end" class="axis">10</text><line x1="105" y1="462.5" x2="545" y2="462.5" class="grid"/><text x="93" y="467.5" text-anchor="end" class="axis">100</text><line x1="105" y1="345.0" x2="545" y2="345.0" class="grid"/><text x="93" y="350.0" text-anchor="end" class="axis">1,000</text><line x1="105" y1="227.5" x2="545" y2="227.5" class="grid"/><text x="93" y="232.5" text-anchor="end" class="axis">10,000</text><line x1="105" y1="110.0" x2="545" y2="110.0" class="grid"/><text x="93" y="115.0" text-anchor="end" class="axis">100,000</text><rect x="117.7" y="504.4" width="48" height="75.6" fill="#005F73"/><text x="141.7" y="497.4" text-anchor="middle" class="label">44</text><text x="141.7" y="602" text-anchor="end" transform="rotate(-45 141.7 602)" class="label">MobiOrigin</text><rect x="191.0" y="396.7" width="48" height="183.3" fill="#0A9396"/><text x="215.0" y="389.7" text-anchor="middle" class="label">363</text><text x="215.0" y="602" text-anchor="end" transform="rotate(-45 215.0 602)" class="label">geNomad</text><rect x="264.3" y="566.6" width="48" height="13.4" fill="#94D2BD"/><text x="288.3" y="559.6" text-anchor="middle" class="label">13</text><text x="288.3" y="602" text-anchor="end" transform="rotate(-45 288.3 602)" class="label">PlasClass</text><rect x="337.7" y="425.1" width="48" height="154.9" fill="#EE9B00"/><text x="361.7" y="418.1" text-anchor="middle" class="label">208</text><text x="361.7" y="602" text-anchor="end" transform="rotate(-45 361.7 602)" class="label">PlasFlow v1</text><rect x="411.0" y="290.3" width="48" height="289.7" fill="#CA6702"/><text x="435.0" y="283.3" text-anchor="middle" class="label">2919</text><text x="435.0" y="602" text-anchor="end" transform="rotate(-45 435.0 602)" class="label">PLASMe</text><rect x="484.3" y="179.1" width="48" height="400.9" fill="#9B2226"/><text x="508.3" y="172.1" text-anchor="middle" class="label">25805</text><text x="508.3" y="602" text-anchor="end" transform="rotate(-45 508.3 602)" class="label">Platon</text><text x="605" y="86" class="panel">B</text><text x="650" y="86" class="axis">Mean fraction of records</text><rect x="650" y="110" width="440" height="470" class="frame"/><line x1="650" y1="580.0" x2="1090" y2="580.0" class="grid"/><text x="638" y="585.0" text-anchor="end" class="axis">0.0</text><line x1="650" y1="486.0" x2="1090" y2="486.0" class="grid"/><text x="638" y="491.0" text-anchor="end" class="axis">0.2</text><line x1="650" y1="392.0" x2="1090" y2="392.0" class="grid"/><text x="638" y="397.0" text-anchor="end" class="axis">0.4</text><line x1="650" y1="298.0" x2="1090" y2="298.0" class="grid"/><text x="638" y="303.0" text-anchor="end" class="axis">0.6</text><line x1="650" y1="204.0" x2="1090" y2="204.0" class="grid"/><text x="638" y="209.0" text-anchor="end" class="axis">0.8</text><line x1="650" y1="110.0" x2="1090" y2="110.0" class="grid"/><text x="638" y="115.0" text-anchor="end" class="axis">1.0</text><rect x="662.7" y="542.0" width="24" height="38.0" fill="#005F73"/><rect x="686.7" y="120.6" width="24" height="459.4" fill="#B8C4CE"/><text x="686.7" y="602" text-anchor="end" transform="rotate(-45 686.7 602)" class="label">MobiOrigin</text><rect x="736.0" y="573.2" width="24" height="6.8" fill="#005F73"/><rect x="760.0" y="110.0" width="24" height="470.0" fill="#B8C4CE"/><text x="760.0" y="602" text-anchor="end" transform="rotate(-45 760.0 602)" class="label">geNomad</text><rect x="809.3" y="417.9" width="24" height="162.1" fill="#005F73"/><rect x="833.3" y="110.0" width="24" height="470.0" fill="#B8C4CE"/><text x="833.3" y="602" text-anchor="end" transform="rotate(-45 833.3 602)" class="label">PlasClass</text><rect x="882.7" y="491.7" width="24" height="88.3" fill="#005F73"/><rect x="906.7" y="285.5" width="24" height="294.5" fill="#B8C4CE"/><text x="906.7" y="602" text-anchor="end" transform="rotate(-45 906.7 602)" class="label">PlasFlow v1</text><rect x="956.0" y="575.0" width="24" height="5.0" fill="#005F73"/><rect x="980.0" y="110.0" width="24" height="470.0" fill="#B8C4CE"/><text x="980.0" y="602" text-anchor="end" transform="rotate(-45 980.0 602)" class="label">PLASMe</text><rect x="1029.3" y="578.7" width="24" height="1.3" fill="#005F73"/><rect x="1053.3" y="110.0" width="24" height="470.0" fill="#B8C4CE"/><text x="1053.3" y="602" text-anchor="end" transform="rotate(-45 1053.3 602)" class="label">Platon</text><rect x="675" y="132" width="18" height="18" fill="#005F73"/><text x="700" y="147" class="label">Plasmid call fraction</text><rect x="870" y="132" width="18" height="18" fill="#B8C4CE"/><text x="895" y="147" class="label">Prediction coverage</text><text x="60" y="690" class="note">No ground truth was assigned to these assemblies. Runtime, call fraction, coverage, agreement, and evidence tiers are operational—not accuracy or clinical-risk—measurements.</text></svg>
